<svg width="85" height="84" viewBox="0 0 85 84" fill="none" xmlns="http://www.w3.org/2000/svg">
<rect x="0.5" width="84" height="84" rx="42" fill="white"/>
<path d="M42.5 74C60.1731 74 74.5 59.6731 74.5 42C74.5 24.3269 60.1731 10 42.5 10C24.8269 10 10.5 24.3269 10.5 42C10.5 59.6731 24.8269 74 42.5 74Z" fill="#E0E8E2"/>
<path d="M32.6758 22.252C32.6797 22.2506 32.7431 22.2288 32.9902 22.3887C37.0616 25.0244 41.1541 27.5386 45.208 30.1865C47.2206 31.5011 49.3112 32.5534 51.0557 34.1494C52.4542 35.4289 53.3865 37.0947 53.8896 39.0137C54.4861 41.2885 54.125 43.5253 53.666 45.8223C53.146 48.4244 52.656 51.0351 52.1514 53.6377C51.5762 56.6044 50.9828 59.5722 50.4385 62.5488C50.4048 62.7331 50.3672 62.7536 50.375 62.748C50.3811 62.7439 50.3808 62.7473 50.3574 62.749C50.3309 62.751 50.2902 62.7491 50.2246 62.7393C48.4548 62.4724 46.6852 62.2021 44.8506 61.9199C44.7471 61.8134 44.7044 61.7082 44.6904 61.5957C44.6726 61.4518 44.6966 61.2971 44.7275 61.0986C45.1783 58.2078 45.6387 55.3183 46.1084 52.4307C46.3672 50.8392 47.1135 49.5081 48.1699 48.3232C48.5608 47.8848 48.7974 47.4931 48.7695 47.0635C48.7423 46.6446 48.4656 46.2665 48.0752 45.8467C47.0686 44.7646 45.7362 44.4373 44.543 44.0654C43.7626 43.8222 43.0219 44.1367 42.5332 44.8369C42.2886 45.1874 42.1423 45.5561 42.1172 45.9424C42.0921 46.3294 42.1894 46.7154 42.4004 47.0967C42.4815 47.2433 42.5668 47.3864 42.6504 47.5254C42.7347 47.6656 42.8171 47.8015 42.8955 47.9395C43.3841 48.7996 43.5797 49.7143 43.4209 50.6953C42.8827 54.0171 42.3604 57.3378 41.7764 60.6475C41.72 60.967 41.6948 61.18 41.5049 61.3584C40.4663 61.3997 39.4965 61.1841 38.4688 61.0195C37.9956 60.9438 37.4873 60.8824 37.0283 60.8145C36.8975 60.7951 36.8264 60.7725 36.7891 60.7559C36.7912 60.7427 36.7948 60.723 36.8018 60.6963C36.8105 60.6625 36.8215 60.6243 36.8359 60.5771C36.8499 60.5313 36.8668 60.4783 36.8828 60.4209C37.7381 57.3592 38.518 54.2463 38.3398 50.959C38.323 50.6474 38.2743 50.3427 38.2324 50.0557C38.1899 49.7642 38.154 49.4862 38.1514 49.2031C38.1312 47.0023 38.827 45.0033 39.8125 43.0938C39.8878 42.9479 39.9395 42.8167 39.958 42.6973C39.9776 42.5707 39.9616 42.4444 39.8867 42.335C39.8183 42.2352 39.721 42.18 39.6504 42.1465C39.5895 42.1177 39.4894 42.0799 39.4414 42.0596C38.0113 41.4522 36.6014 40.8095 35.2617 40.0381C32.5636 38.4845 29.9306 36.8642 27.6221 34.7344C27.0728 34.2276 26.5728 33.7209 26.0195 33.2002C25.8391 33.0303 25.7696 32.9149 25.7539 32.8174C25.7396 32.7283 25.762 32.5935 25.9277 32.3623C26.724 31.2517 27.4532 30.0534 28.2334 28.8955C28.4131 28.9045 28.5567 28.9845 28.7393 29.1045C32.3081 31.4499 35.8741 33.8038 39.457 36.1289C40.6435 36.8989 41.476 37.9101 41.7891 39.3467C41.9108 39.905 42.1321 40.4794 42.6191 40.8955C43.7033 41.8213 45.3146 41.4115 45.916 40.0566C46.3037 39.1831 46.695 38.3785 47.3184 37.707C47.9711 37.0038 47.9022 36.1316 47.5957 35.3701C47.2762 34.5769 46.6298 34.1931 45.8389 34.1309C45.3939 34.0959 44.9786 34.1927 44.5908 34.3027C43.7018 34.555 42.8767 34.46 42.0801 33.9453C38.2012 31.4392 34.3762 28.8729 30.501 26.3506C30.369 26.2647 30.2661 26.1882 30.1846 26.0645C30.9324 24.8524 31.7033 23.7022 32.459 22.5215C32.522 22.423 32.5681 22.3556 32.6094 22.3086C32.6492 22.2632 32.6699 22.254 32.6758 22.252Z" fill="#FDF8E5" stroke="#3A643C" stroke-width="0.5"/>
<path d="M29.936 26.2842C31.1788 26.862 32.2315 27.7008 33.4048 28.4668C36.2401 30.318 39.0512 32.211 41.8677 34.0996C42.7471 34.6893 43.6707 34.7437 44.6138 34.4023C45.5922 34.0482 46.4949 34.283 46.9907 34.9453L47.0845 35.083C47.3625 35.5369 47.4635 36.0154 47.397 36.4834C47.3302 36.9528 47.0919 37.4287 46.6636 37.8691C46.0762 38.4731 45.8274 39.2514 45.5552 39.9307C45.2427 40.7102 44.5218 41.1877 43.7778 41.1465C43.3577 41.1231 42.9682 41.0196 42.6724 40.8271C42.3835 40.6393 42.1766 40.3626 42.1118 39.9609C41.6604 37.1593 39.6299 35.9592 37.7349 34.7314C34.7394 32.7907 31.7803 30.7899 28.8032 28.8086C28.7132 28.7487 28.6298 28.673 28.5278 28.5742C28.9721 27.7944 29.4352 27.0473 29.936 26.2842Z" fill="#E0E8E2" stroke="#3A643C" stroke-width="0.5"/>
<path d="M43.895 44.3037C45.7127 44.6043 47.3441 45.1841 48.4907 46.6279C48.6601 46.8412 48.7607 47.0745 48.7729 47.2852C48.7844 47.4853 48.7184 47.6799 48.5239 47.8496C46.5039 49.611 45.8542 51.9317 45.5181 54.3799C45.1783 56.8543 44.7353 59.3083 44.3267 61.8467C43.4433 61.7667 42.5572 61.6417 41.6206 61.501C42.1958 57.8561 42.8484 54.231 43.4565 50.5879C43.6688 49.3158 43.0964 48.2525 42.4272 47.2959C42.0374 46.7386 41.9506 46.141 42.0972 45.6289C42.244 45.1165 42.6308 44.6674 43.229 44.4189C43.4719 44.3181 43.6916 44.2702 43.895 44.3037Z" fill="#E0E8E2" stroke="#3A643C" stroke-width="0.5"/>
<path d="M57.1151 37.1046C57.9842 36.7897 58.7917 36.4781 59.6014 36.1732C59.8851 36.0664 60.1891 36.0523 60.2892 36.4208C60.3825 36.7647 60.355 37.1135 59.9301 37.2513C59.0858 37.525 58.2465 37.8177 57.4085 38.1135C56.9926 38.2603 56.4954 38.5645 56.2981 37.8985C56.1086 37.2589 56.7015 37.267 57.1151 37.1046Z" fill="#3A643C"/>
<path d="M56.0533 34.1023C56.7616 33.4874 57.4367 32.9276 58.0799 32.3249C58.3681 32.0549 58.5609 32.0918 58.8047 32.369C59.0813 32.6834 58.9956 32.9395 58.7417 33.1749C57.8762 33.9772 57.0136 34.784 56.129 35.559C55.9508 35.7151 55.6744 35.7137 55.4908 35.4828C55.3152 35.2619 55.3181 34.9882 55.4658 34.7652C55.6189 34.534 55.8244 34.3465 56.0533 34.1023Z" fill="#3A643C"/>
<path d="M58.3737 41.2277C57.8747 41.3287 57.4934 41.0442 57.0688 41.0465C56.7375 41.0482 56.7323 40.738 56.7159 40.4508C56.6947 40.0796 56.898 40.0592 57.1393 40.083C58.2389 40.1913 59.3387 40.2976 60.4371 40.4193C60.769 40.4561 60.7692 40.7423 60.7845 41.0288C60.8047 41.4075 60.5896 41.3873 60.3546 41.3938C59.7113 41.4117 59.0724 41.3862 58.3737 41.2277Z" fill="#3A643C"/>
<path d="M49.5298 39.6934C49.5635 39.6927 49.681 39.7093 49.8511 39.9316C50.3134 40.5361 50.7478 41.1623 51.106 41.8252C51.2768 42.1415 51.2495 42.3535 51.2007 42.4531C51.1591 42.5379 51.0517 42.6451 50.7837 42.6504C50.0864 42.664 49.424 42.6772 48.7769 42.6045C48.3532 42.5569 48.2418 42.4241 48.2046 42.3428C48.1504 42.2238 48.1278 41.9571 48.3237 41.4453C48.6676 40.8494 48.8891 40.3805 49.2046 39.9482C49.3725 39.7182 49.4932 39.6942 49.5298 39.6934Z" fill="#E0E8E2" stroke="#3A643C"/>
</svg>
