<svg width="85" height="84" viewBox="0 0 85 84" fill="none" xmlns="http://www.w3.org/2000/svg">
<rect x="0.5" width="84" height="84" rx="42" fill="white"/>
<path d="M42.5 74C60.1731 74 74.5 59.6731 74.5 42C74.5 24.3269 60.1731 10 42.5 10C24.8269 10 10.5 24.3269 10.5 42C10.5 59.6731 24.8269 74 42.5 74Z" fill="#E0E8E2"/>
<path d="M54.8909 46.7827C45.9391 48.7827 33.6305 55.7827 35.8684 51.2827C31.9181 48.7907 56.4524 39.3851 44.82 35.2834C50.8576 29.8851 52.6189 29.2908 56.5693 31.7828C60.5196 34.2748 58.9314 38.3586 54.8909 46.7827Z" fill="#FDF8E5"/>
<path d="M49.4746 48.5C47.7962 53 45.5582 55.5 40.523 55C36.1971 55 33.8092 51.7615 33.8092 49C32.1307 45 36.7566 47 41.0825 47C45.4084 47 49.4746 45.7386 49.4746 48.5Z" fill="#FDF8E5"/>
<path d="M25.009 45.1694C23.3351 46.4167 22.3757 48.3481 22.3757 50.4694V57.5864H21.5V50.4694C21.5 48.0616 22.5898 45.8687 24.491 44.4524C26.4303 43.0072 28.8739 42.6037 31.1959 43.347C33.3839 44.0467 35.0363 44.3968 35.9598 44.3501C39.5243 44.1851 42.5359 41.1461 42.5359 37.7144C42.5359 35.7825 42.0534 34.8137 41.5424 33.788C40.9736 32.6439 40.3278 31.3477 40.3278 28.6735V22.0013H41.2035V28.6735C41.2035 31.1356 41.7732 32.2796 42.3244 33.3863C42.8591 34.4601 43.4116 35.5704 43.4116 37.7144C43.4116 41.6069 40.0174 45.0529 36 45.2393C34.9518 45.2886 33.2503 44.9372 30.9327 44.1957C28.8805 43.5392 26.721 43.8937 25.009 45.1694ZM46.9626 35.859C46.9626 35.267 47.4364 34.7857 48.0188 34.7857C48.6015 34.7857 49.0753 35.2674 49.0753 35.859C49.0753 36.4506 48.6015 36.9324 48.0188 36.9324C47.4364 36.9319 46.9626 36.4506 46.9626 35.859ZM47.8384 35.859C47.8384 35.9605 47.9194 36.0428 48.0188 36.0428C48.1181 36.0428 48.1996 35.9605 48.1996 35.859C48.1996 35.7576 48.1181 35.6753 48.0188 35.6753C47.9194 35.6753 47.8384 35.7576 47.8384 35.859ZM46.7148 47.5794C46.7148 46.9878 47.1886 46.5061 47.7714 46.5061C48.3542 46.5061 48.8279 46.9878 48.8279 47.5794C48.8279 48.1715 48.3542 48.6528 47.7714 48.6528C47.1886 48.6528 46.7148 48.1715 46.7148 47.5794ZM47.5905 47.5794C47.5905 47.6808 47.672 47.7631 47.7714 47.7631C47.8708 47.7631 47.9522 47.6804 47.9522 47.5794C47.9522 47.4784 47.8712 47.3962 47.7714 47.3962C47.6715 47.3962 47.5905 47.4784 47.5905 47.5794ZM53.115 40.591C52.5326 40.591 52.0589 40.1092 52.0589 39.5176C52.0589 38.926 52.5326 38.4443 53.115 38.4443C53.6978 38.4443 54.1715 38.926 54.1715 39.5176C54.1715 40.1097 53.6978 40.591 53.115 40.591ZM53.115 39.7013C53.2148 39.7013 53.2958 39.6186 53.2958 39.5176C53.2958 39.4167 53.2144 39.3339 53.115 39.3339C53.0156 39.3339 52.9346 39.4162 52.9346 39.5176C52.9346 39.619 53.0156 39.7013 53.115 39.7013ZM54.3129 45.4532C54.3129 46.0453 53.8392 46.5266 53.2564 46.5266C52.674 46.5266 52.2003 46.0448 52.2003 45.4532C52.2003 44.8616 52.674 44.3799 53.2564 44.3799C53.8392 44.3799 54.3129 44.8616 54.3129 45.4532ZM53.4372 45.4532C53.4372 45.3518 53.3558 45.2695 53.2564 45.2695C53.157 45.2695 53.076 45.3518 53.076 45.4532C53.076 45.5546 53.157 45.6369 53.2564 45.6369C53.3558 45.6369 53.4372 45.5542 53.4372 45.4532ZM39.8532 49.6905C39.5624 49.1776 39.7358 48.5198 40.2402 48.224C40.7442 47.9286 41.3914 48.1043 41.6834 48.6167C41.8244 48.8654 41.8621 49.1545 41.7889 49.4316C41.7154 49.7083 41.5407 49.94 41.2964 50.0833C41.1304 50.1802 40.9491 50.2265 40.77 50.2265C40.4049 50.2265 40.0489 50.0339 39.8532 49.6905ZM40.6115 49.2457C40.661 49.3324 40.7709 49.3636 40.8581 49.3124C40.9145 49.2795 40.9356 49.2283 40.9426 49.2008C40.9496 49.1732 40.9566 49.1189 40.9242 49.0615C40.8909 49.0028 40.8296 48.9695 40.7674 48.9695C40.7372 48.9695 40.7057 48.9775 40.6777 48.9939C40.5918 49.0451 40.5621 49.1576 40.6115 49.2457ZM52.8006 41.6105L52.569 40.7524C50.8219 41.2391 49.7899 43.0792 50.2685 44.8545L51.1135 44.6196C50.7619 43.3177 51.5194 41.9677 52.8006 41.6105ZM47.6475 38.7294L47.4132 39.5866C47.7057 39.6693 48.003 39.7102 48.2985 39.7102C48.8573 39.7102 49.4094 39.5639 49.9094 39.277C50.6739 38.8384 51.2243 38.1236 51.4594 37.2647L50.6152 37.0267C50.4427 37.657 50.0395 38.181 49.4786 38.5026C48.9177 38.8237 48.2675 38.9042 47.6475 38.7294ZM45.6224 47.0314L46.0204 46.2392C44.4064 45.4025 42.423 46.055 41.5989 47.6946L42.3787 48.099C42.9834 46.8962 44.4367 46.4171 45.6224 47.0314ZM55.6072 34.3969L56.0972 33.6599C54.5967 32.6306 52.5497 33.0314 51.5352 34.5566L52.2603 35.0548C53.0051 33.9361 54.5065 33.6412 55.6072 34.3969ZM47.7862 45.6218L48.2517 44.8683C47.7928 44.5756 47.4736 44.1192 47.3523 43.5823C47.2311 43.0454 47.3234 42.4934 47.6111 42.0268L46.8698 41.554C46.4574 42.2212 46.3256 43.0121 46.4985 43.7803C46.6715 44.5489 47.129 45.2028 47.7862 45.6218ZM39.2822 50.5712L38.9394 49.7528C38.4437 49.9667 37.8968 49.9721 37.3986 49.7688C36.8994 49.5651 36.5088 49.1759 36.2978 48.6732L35.4921 49.022C35.7942 49.743 36.3556 50.3012 37.071 50.5944C37.42 50.7367 37.7852 50.8079 38.1499 50.8079C38.5344 50.8074 38.9184 50.7287 39.2822 50.5712ZM55.6256 41.098C55.799 41.9619 55.2486 42.8084 54.3979 42.9854L54.573 43.8568C55.8962 43.5819 56.7531 42.2644 56.483 40.9201L55.6256 41.098ZM54.9233 36.4653L54.0485 36.5098C54.0813 37.1739 54.3668 37.7851 54.8519 38.2312C55.3064 38.6485 55.8844 38.8744 56.4926 38.8744C56.5346 38.8744 56.5762 38.8735 56.6182 38.8713L56.5745 37.983C56.148 38.0004 55.7513 37.858 55.4391 37.572C55.1278 37.2842 54.9443 36.8919 54.9233 36.4653ZM39.9793 52.3403C39.407 52.3625 38.8557 52.1663 38.4306 51.7736L37.8412 52.4314C38.403 52.951 39.1202 53.2321 39.8751 53.2321C39.9232 53.2321 39.9723 53.2312 40.0204 53.2285C40.8278 53.1898 41.5722 52.8344 42.116 52.2268L41.4684 51.6281C41.0822 52.06 40.5533 52.3127 39.9793 52.3403ZM41.9956 51.0868L42.6432 51.6855C43.0303 51.254 43.5588 51.0009 44.1328 50.9733C44.7037 50.9413 45.2563 51.1468 45.681 51.5396L46.2704 50.8817C45.6732 50.3293 44.9043 50.0464 44.0912 50.0846C43.2838 50.1233 42.5394 50.4792 41.9956 51.0868ZM59.1863 52.9795C59.1863 56.2991 56.5276 59 53.2599 59C51.0303 59 49.0858 57.7416 48.0744 55.8881C45.4472 57.0201 42.789 57.6051 40.2534 57.6055C39.4412 57.6055 38.6412 57.5464 37.8592 57.4267C34.7106 56.9459 32.2012 55.0243 31.1473 52.286C30.8268 51.4524 30.0798 50.9142 29.2444 50.9142C28.0967 50.9142 27.1921 51.8332 27.1921 52.9626V57.5864H26.3164V52.9626C26.3164 51.3425 27.6138 50.0246 29.2085 50.0246C30.4423 50.0246 31.5098 50.7847 31.963 51.9613C32.9013 54.3993 35.1541 56.1132 37.9892 56.5464C41.0476 57.0139 44.3986 56.4984 47.7114 55.075C47.5489 54.6333 47.4338 54.1689 47.3777 53.6849C45.1022 54.6626 42.7518 55.1826 40.541 55.1826C39.8628 55.1826 39.1911 55.1328 38.5444 55.0349C36.2855 54.6889 34.3038 53.1418 33.4951 51.0934C33.1163 50.1353 32.9749 48.6403 33.0743 46.6507L33.101 46.1204L33.6107 46.2401C34.7824 46.515 35.7452 46.64 36.4615 46.6017C41.1444 46.3842 44.952 42.4925 44.952 37.9256C44.952 36.4311 44.8215 35.9004 44.7072 35.6055L44.5882 35.295L44.8478 35.0913C46.4687 33.8191 48.2828 32.6226 49.366 31.9073C49.6445 31.7236 49.8678 31.5764 50.018 31.4736C51.0785 30.7495 52.1644 30.3429 53.3378 30.2308C53.5331 30.2121 53.7306 30.2024 53.9232 30.2024C56.4773 30.2024 59.4604 31.9291 59.4604 36.7967C59.4604 40.5767 58.1175 44.2424 55.5744 47.4384C55.9974 47.6212 56.391 47.8579 56.757 48.1305C59.4709 44.657 60.9071 40.6661 60.9071 36.5587C60.9071 33.8685 60.069 31.672 58.4831 30.2068C57.0824 28.9124 55.2035 28.3061 53.1916 28.5001C51.7751 28.6366 50.4734 29.1188 49.2119 29.9746C48.3257 30.5756 47.2262 30.701 46.273 30.3113C45.0637 29.8171 44.2856 28.6504 44.2821 27.3355L44.2685 22.0022L45.1442 22L45.1578 27.3324C45.1604 28.2834 45.7231 29.1272 46.5913 29.4822C47.2845 29.766 48.0801 29.6726 48.725 29.2344C50.11 28.295 51.5439 27.7648 53.1084 27.614C55.3686 27.3974 57.4865 28.0828 59.072 29.5485C60.8453 31.1872 61.7828 33.611 61.7828 36.5587C61.7828 40.8783 60.2752 45.0676 57.4261 48.7035C58.512 49.795 59.1863 51.3083 59.1863 52.9795ZM47.3462 52.7286C47.4771 49.5255 50.0758 46.9585 53.2603 46.9585C53.7503 46.9585 54.224 47.0261 54.6799 47.1404C57.2334 44.0427 58.5847 40.4722 58.5847 36.7954C58.5847 32.5848 56.074 31.0906 53.9232 31.0906C53.7573 31.0906 53.587 31.0995 53.4197 31.1156C52.3956 31.2134 51.4428 31.5719 50.5071 32.2107C50.3543 32.3152 50.127 32.4656 49.8433 32.6524C48.8257 33.3241 47.1566 34.425 45.6276 35.6037C45.7375 36.0183 45.8277 36.6748 45.8277 37.9248C45.8277 42.96 41.6453 47.2512 36.5049 47.4896C35.828 47.5247 34.9601 47.4357 33.9285 47.2209C33.8834 48.7991 34.0131 50.0166 34.3077 50.7621C35.0035 52.5231 36.7177 53.8553 38.6749 54.1551C41.3633 54.563 44.4257 54.0434 47.3462 52.7286ZM58.3106 52.9795C58.3106 50.1504 56.0447 47.8485 53.2599 47.8485C50.4751 47.8485 48.2092 50.15 48.2092 52.9795C48.2092 55.8089 50.4751 58.1104 53.2599 58.1104C56.0447 58.1104 58.3106 55.8085 58.3106 52.9795ZM52.752 54.6391L51.0141 52.874L50.395 53.503L52.8785 56.026L56.1944 51.1041L55.4719 50.6015L52.752 54.6391Z" fill="#3A643C"/>
</svg>
