<svg width="85" height="84" viewBox="0 0 85 84" fill="none" xmlns="http://www.w3.org/2000/svg">
<rect x="0.5" width="84" height="84" rx="42" fill="white"/>
<path d="M42.5 74C60.1731 74 74.5 59.6731 74.5 42C74.5 24.3269 60.1731 10 42.5 10C24.8269 10 10.5 24.3269 10.5 42C10.5 59.6731 24.8269 74 42.5 74Z" fill="#E0E8E2"/>
<path d="M60.3151 33.0955C60.3138 32.7252 60.1027 32.3671 59.7725 32.1751L52.3714 27.9882C52.069 27.8171 51.7004 27.8173 51.3909 27.9752C46.436 30.5017 40.3612 30.5007 35.4072 27.972C35.1012 27.8157 34.7371 27.8136 34.4362 27.9796L27.011 32.075C26.6808 32.267 26.4697 32.6252 26.4684 32.9955C26.4282 44.1038 33.6179 55.5205 43.3919 60.1487C43.7852 60.3664 43.6453 60.3664 44.0386 60.1487C53.9967 54.6309 60.3182 44.1687 60.3151 33.0955Z" fill="#FDF8E5" stroke="#3A643C" stroke-miterlimit="10"/>
<path opacity="0.5" d="M40.9112 36.4187C40.7786 36.7271 40.7786 37.118 40.7786 37.8999V39.4974C40.7786 39.5353 40.7786 39.5543 40.7664 39.5661C40.7541 39.5779 40.7344 39.5779 40.695 39.5779H39.0365C38.2248 39.5779 37.8189 39.5779 37.4988 39.7057C37.0719 39.876 36.7328 40.2026 36.556 40.6138C36.4233 40.9222 36.4233 41.3131 36.4233 42.095C36.4233 42.8769 36.4233 43.2678 36.556 43.5762C36.7328 43.9873 37.0719 44.314 37.4988 44.4843C37.8189 44.612 38.2248 44.612 39.0365 44.612H40.695C40.7344 44.612 40.7541 44.612 40.7664 44.6238C40.7786 44.6356 40.7786 44.6546 40.7786 44.6926V46.2901C40.7786 47.072 40.7786 47.4629 40.9112 47.7713C41.0881 48.1824 41.4272 48.5091 41.8541 48.6794C42.1742 48.8072 42.5801 48.8072 43.3918 48.8072C44.2035 48.8072 44.6094 48.8072 44.9295 48.6794C45.3564 48.5091 45.6956 48.1824 45.8724 47.7713C46.005 47.4629 46.005 47.072 46.005 46.2901V44.6926C46.005 44.6546 46.005 44.6356 46.0172 44.6238C46.0295 44.612 46.0492 44.612 46.0886 44.612H47.7471C48.5588 44.612 48.9647 44.612 49.2848 44.4843C49.7117 44.314 50.0509 43.9873 50.2277 43.5762C50.3603 43.2678 50.3603 42.8769 50.3603 42.095C50.3603 41.3131 50.3603 40.9222 50.2277 40.6138C50.0509 40.2026 49.7117 39.876 49.2848 39.7057C48.9647 39.5779 48.5588 39.5779 47.7471 39.5779H46.0886C46.0492 39.5779 46.0295 39.5779 46.0172 39.5661C46.005 39.5543 46.005 39.5353 46.005 39.4974V37.8999C46.005 37.118 46.005 36.7271 45.8724 36.4187C45.6956 36.0075 45.3564 35.6809 44.9295 35.5105C44.6094 35.3828 44.2035 35.3828 43.3918 35.3828C42.5801 35.3828 42.1742 35.3828 41.8541 35.5105C41.4272 35.6809 41.0881 36.0075 40.9112 36.4187Z" fill="#E0E8E2" stroke="#3A643C"/>
<ellipse opacity="0.5" cx="35.75" cy="55.1667" rx="3.125" ry="2.60417" stroke="#3A643C"/>
<path d="M35.75 52.25L35.75 52.4583" stroke="#3A643C" stroke-linecap="round"/>
<path d="M35.75 57.457V58.2904" stroke="#3A643C" stroke-linecap="round"/>
<path d="M33.1159 53.6105C33.328 53.7872 33.672 53.7872 33.8841 53.6105C34.0962 53.4337 34.0962 53.1471 33.8841 52.9703L33.1159 53.6105ZM33.25 53.082L32.8659 53.4021L33.1159 53.6105L33.5 53.2904L33.8841 52.9703L33.6341 52.7619L33.25 53.082Z" fill="#3A643C"/>
<path d="M37.2409 53.2828C37.0288 53.4596 37.0288 53.7462 37.2409 53.923C37.453 54.0997 37.797 54.0997 38.0091 53.923L37.2409 53.2828ZM38.25 53.082L37.8659 52.7619L37.2409 53.2828L37.625 53.6029L38.0091 53.923L38.6341 53.4021L38.25 53.082Z" fill="#3A643C"/>
<path d="M38.3841 56.7216C38.172 56.5448 37.828 56.5448 37.6159 56.7216C37.4038 56.8984 37.4038 57.185 37.6159 57.3618L38.3841 56.7216ZM38.25 57.25L38.6341 56.9299L38.3841 56.7216L38 57.0417L37.6159 57.3618L37.8659 57.5701L38.25 57.25Z" fill="#3A643C"/>
<path d="M32 55.166L32.5 55.166" stroke="#3A643C" stroke-linecap="round"/>
<path d="M38.5 55.166L39.5 55.166" stroke="#3A643C" stroke-linecap="round"/>
<path d="M34.2591 57.0493C34.4712 56.8725 34.4712 56.5859 34.2591 56.4091C34.047 56.2323 33.703 56.2323 33.4909 56.4091L34.2591 57.0493ZM33.25 57.25L33.6341 57.5701L34.2591 57.0493L33.875 56.7292L33.4909 56.4091L32.8659 56.9299L33.25 57.25Z" fill="#3A643C"/>
<path d="M36 53.9167C36 54.1468 35.7761 54.3333 35.5 54.3333C35.2239 54.3333 35 54.1468 35 53.9167C35 53.6865 35.2239 53.5 35.5 53.5C35.7761 53.5 36 53.6865 36 53.9167Z" stroke="#3A643C"/>
<path d="M35 55.5827C35 55.8128 34.7761 55.9993 34.5 55.9993C34.2239 55.9993 34 55.8128 34 55.5827C34 55.3526 34.2239 55.166 34.5 55.166C34.7761 55.166 35 55.3526 35 55.5827Z" stroke="#3A643C"/>
<path d="M37.75 55.9987C37.75 56.2288 37.5261 56.4154 37.25 56.4154C36.9739 56.4154 36.75 56.2288 36.75 55.9987C36.75 55.7686 36.9739 55.582 37.25 55.582C37.5261 55.582 37.75 55.7686 37.75 55.9987Z" stroke="#3A643C"/>
<ellipse cx="0.5" cy="0.416667" rx="0.5" ry="0.416667" transform="matrix(1 0 0 -1 35.25 52.041)" stroke="#3A643C"/>
<path d="M36.25 58.7083C36.25 58.4782 36.0261 58.2917 35.75 58.2917C35.4739 58.2917 35.25 58.4782 35.25 58.7083C35.25 58.9385 35.4739 59.125 35.75 59.125C36.0261 59.125 36.25 58.9385 36.25 58.7083Z" stroke="#3A643C"/>
<ellipse cx="0.5" cy="0.416667" rx="0.5" ry="0.416667" transform="matrix(1 0 0 -1 32.25 53.082)" stroke="#3A643C"/>
<ellipse cx="0.5" cy="0.416667" rx="0.5" ry="0.416667" transform="matrix(1 0 0 -1 38.25 53.082)" stroke="#3A643C"/>
<ellipse cx="0.5" cy="0.416667" rx="0.5" ry="0.416667" transform="matrix(1 0 0 -1 38.25 58.082)" stroke="#3A643C"/>
<path d="M32 55.1654C32 54.9352 31.7761 54.7487 31.5 54.7487C31.2239 54.7487 31 54.9352 31 55.1654C31 55.3955 31.2239 55.582 31.5 55.582C31.7761 55.582 32 55.3955 32 55.1654Z" stroke="#3A643C"/>
<path d="M40.5 55.1654C40.5 54.9352 40.2761 54.7487 40 54.7487C39.7239 54.7487 39.5 54.9352 39.5 55.1654C39.5 55.3955 39.7239 55.582 40 55.582C40.2761 55.582 40.5 55.3955 40.5 55.1654Z" stroke="#3A643C"/>
<ellipse cx="0.5" cy="0.416667" rx="0.5" ry="0.416667" transform="matrix(1 0 0 -1 32.25 58.082)" stroke="#3A643C"/>
</svg>
