<svg width="85" height="84" viewBox="0 0 85 84" fill="none" xmlns="http://www.w3.org/2000/svg">
<rect x="0.5" width="84" height="84" rx="42" fill="white"/>
<path d="M42.5 74C60.1731 74 74.5 59.6731 74.5 42C74.5 24.3269 60.1731 10 42.5 10C24.8269 10 10.5 24.3269 10.5 42C10.5 59.6731 24.8269 74 42.5 74Z" fill="#E0E8E2"/>
<path d="M37.866 34.8512C37.7564 34.7569 37.6674 34.6408 37.6045 34.5103C37.5417 34.3797 37.5064 34.2376 37.5008 34.0927C37.4952 33.9478 37.5195 33.8033 37.5722 33.6683C37.6248 33.5333 37.7046 33.4107 37.8067 33.3081C37.9087 33.2056 38.0308 33.1254 38.1651 33.0725C38.2995 33.0196 38.4433 32.9952 38.5875 33.0008C38.7317 33.0064 38.8732 33.0419 39.0031 33.105C39.133 33.1682 39.2485 33.2576 39.3424 33.3677L47.1955 41.2583C47.3905 41.4554 47.5 41.7221 47.5 42C47.5 42.2779 47.3905 42.5446 47.1955 42.7417L39.3424 50.6323C39.2485 50.7424 39.133 50.8318 39.0031 50.895C38.8732 50.9581 38.7317 50.9936 38.5875 50.9992C38.4433 51.0048 38.2995 50.9804 38.1651 50.9275C38.0308 50.8746 37.9087 50.7944 37.8067 50.6919C37.7046 50.5893 37.6248 50.4667 37.5721 50.3317C37.5195 50.1967 37.4952 50.0522 37.5008 49.9073C37.5063 49.7624 37.5417 49.6203 37.6045 49.4897C37.6674 49.3592 37.7564 49.2431 37.866 49.1488L44.9757 42L37.866 34.8512Z" fill="#3A643B"/>
</svg>
