<svg width="85" height="84" viewBox="0 0 85 84" fill="none" xmlns="http://www.w3.org/2000/svg">
<rect x="0.5" width="84" height="84" rx="42" fill="white"/>
<ellipse cx="42" cy="42" rx="32.5" ry="32" fill="#E0E8E2"/>
<path d="M56.1409 35.262C55.6098 45.3916 49.6652 33.4546 42.3321 33.4546C40.492 34.1937 29.6231 45.9205 28.8076 35.26C28.8076 28.7823 34.999 23 42.3321 23C49.6652 23 56.1409 28.7843 56.1409 35.262Z" fill="#FDF8E5"/>
<path d="M53.2693 61.3276C51.0014 60.8986 49.353 59.7559 48.3611 57.9366C46.9314 55.3089 47.3645 52.2273 47.5555 51.7777C49.2598 50.6226 50.5264 49.1128 51.4671 47.079C52.8502 47.0501 54.2192 46.1055 55.1459 44.542C55.9189 43.2343 56.3287 41.4316 55.4952 40.3631C55.3275 40.1445 55.0714 39.9176 54.6896 39.7567C55.6954 38.0654 55.9003 36.6463 55.9003 34.8229C55.9003 28.3051 49.8279 23 42.3679 23C39.327 23 36.5143 23.8828 34.2512 25.3679C34.2419 25.372 34.2325 25.3761 34.2232 25.3803C34.1953 25.3968 34.172 25.4174 34.1487 25.438C30.9169 27.5996 28.8307 31.003 28.8307 34.8229C28.8307 36.8154 28.8773 37.9045 29.8785 39.5175C29.4082 39.6783 29.1055 39.9382 28.9145 40.1857C28.081 41.2583 28.4861 43.0569 29.2638 44.3646C30.2045 45.9569 31.6061 46.9058 33.0125 46.9058C33.0777 46.9058 33.1382 46.8893 33.1894 46.8645C34.1999 49.0179 35.5411 50.6721 37.1803 51.7777C37.3665 52.2232 37.8043 55.3047 36.3746 57.9366C35.3828 59.7559 33.7296 60.8986 31.4664 61.3317C31.2615 61.3688 31.1312 61.5504 31.1731 61.7319C31.2103 61.8886 31.3686 62 31.5456 62C31.5735 62 31.5968 61.9959 31.6248 61.9917C35.7274 61.2121 37.2594 58.4523 37.8229 56.2742C38.1814 54.8963 38.214 53.3618 38.079 52.3593C39.3549 53.073 40.8451 53.4566 42.3679 53.4566C43.8906 53.4566 45.3854 53.0689 46.6567 52.3593C46.517 53.3659 46.5543 54.8963 46.9128 56.2742C47.4763 58.4523 49.0084 61.2121 53.1109 61.9917C53.1389 61.9959 53.1668 62 53.1901 62C53.3671 62 53.5254 61.8927 53.5626 61.7319C53.6045 61.5421 53.4742 61.3647 53.2693 61.3276ZM55.1366 34.8188C55.1366 36.8649 54.82 38.1314 53.9352 39.5628C53.7768 39.5463 53.6092 39.5381 53.4229 39.5422C54.2612 30.3305 47.5881 28.0905 47.5182 28.0699C47.318 28.008 47.1037 28.0988 47.0292 28.2721C46.9594 28.4453 47.0618 28.6392 47.2574 28.7052C47.3133 28.7217 51.8722 30.2604 52.622 36.2626C49.9723 30.4626 41.823 30.5121 41.7252 30.5203C41.5157 30.5244 41.348 30.6771 41.3527 30.8627C41.3573 31.0483 41.525 31.1927 41.7345 31.1927C41.7392 31.1927 41.7392 31.1927 41.7392 31.1927C42.1257 31.1845 50.6894 31.1391 52.3845 37.8797C51.5556 36.9598 50.3448 36.1389 48.729 35.3963C47.8069 34.9714 46.8337 34.6167 45.893 34.2743C44.8965 33.9113 43.8673 33.5359 42.908 33.0821C39.2944 31.3577 36.9847 28.5361 34.9497 25.7515C37.0406 24.4438 39.6018 23.6724 42.3632 23.6724C49.4088 23.6724 55.1366 28.6722 55.1366 34.8188ZM29.5944 34.8188C29.5944 31.3247 31.4478 28.2019 34.3396 26.1558C36.2675 28.796 38.4562 31.4691 41.7764 33.2677C41.036 34.1216 37.6459 37.7147 32.0858 39.1874C32.3792 36.5638 35.1127 33.9608 35.1406 33.936C35.285 33.7999 35.2756 33.5854 35.1266 33.4575C34.973 33.3296 34.7308 33.3378 34.5911 33.4699C34.4607 33.5936 31.4758 36.4276 31.3081 39.3772C31.3035 39.3772 31.2988 39.3772 31.2941 39.3813C31.066 39.3607 30.8564 39.3566 30.6655 39.3648C29.641 37.7972 29.5944 36.8195 29.5944 34.8188ZM37.7018 51.2785C35.9648 50.1193 34.5771 48.3042 33.5853 45.9033L32.9426 43.9768C32.8821 43.7994 32.6725 43.6963 32.4676 43.7499C32.2674 43.8036 32.151 43.9892 32.2115 44.1707L32.8635 46.1178C32.8774 46.155 32.8961 46.188 32.91 46.2251C31.6387 46.1673 30.5491 45.0741 29.9437 44.0511C29.152 42.7145 28.9891 41.2831 29.5479 40.5694C29.8785 40.1445 30.4606 39.9754 31.2802 40.0661C31.2895 40.0661 31.3035 40.0661 31.3128 40.0661C31.3174 40.0661 31.3221 40.0661 31.3267 40.0661C31.3314 40.0661 31.3361 40.0661 31.3407 40.0661C31.364 40.0661 31.3873 40.062 31.4106 40.0579C31.4152 40.0579 31.4152 40.0579 31.4199 40.0579H31.4245C31.4292 40.0579 31.4338 40.0579 31.4385 40.0537C31.527 40.0331 31.6155 40.0125 31.6993 39.9919C31.7505 39.9877 31.8017 39.9754 31.8483 39.9589C38.1209 38.4614 41.7578 34.4352 42.4424 33.6184C42.4843 33.639 42.5262 33.6637 42.5681 33.6844C43.56 34.1546 44.6077 34.5383 45.6183 34.9054C46.5403 35.2437 47.4996 35.5902 48.3937 36.0027C50.6848 37.0506 52.0865 38.251 52.6872 39.666C52.6872 39.6701 52.6918 39.6701 52.6918 39.6742C52.6965 39.6825 52.7011 39.6948 52.7058 39.7031C52.7105 39.7113 52.7151 39.7196 52.7244 39.7278C52.7291 39.7361 52.7384 39.7443 52.7431 39.7526C52.7431 39.7526 52.7431 39.7567 52.7477 39.7567C52.7151 39.8145 52.6965 39.8846 52.7058 39.9547C52.7291 40.1404 52.92 40.2724 53.1296 40.2476C53.9491 40.161 54.5312 40.3301 54.8619 40.7509C55.4207 41.4646 55.2577 42.9001 54.466 44.2326C53.9026 45.1855 52.92 46.1921 51.7605 46.3777C51.8676 46.1096 51.9747 45.8332 52.0725 45.5485L52.5195 43.882C52.5661 43.7004 52.4404 43.5189 52.2355 43.4777C52.0306 43.4364 51.8257 43.5478 51.7791 43.7293L51.3367 45.3753C50.4007 48.0649 49.0363 49.9419 47.0199 51.2909C47.0153 51.2909 47.0153 51.295 47.0106 51.295C45.7067 52.2521 44.0582 52.7801 42.3632 52.7801C40.6728 52.776 39.0197 52.2479 37.7018 51.2785Z" fill="#3A643C"/>
<path d="M39.1916 40.9282C37.3755 42.1658 35.1635 40.9612 35.0658 40.9117C34.8888 40.8127 34.6513 40.8581 34.5395 41.0148C34.4278 41.1716 34.479 41.382 34.656 41.481C34.7305 41.5222 35.8947 42.1617 37.3196 42.1617C38.0647 42.1617 38.8796 41.9884 39.648 41.4645C39.8156 41.3531 39.8482 41.1386 39.7178 40.9901C39.5968 40.8457 39.3593 40.8168 39.1916 40.9282Z" fill="#3A643C"/>
<path d="M50.0702 41.4814C50.2472 41.3824 50.2984 41.1761 50.1867 41.0152C50.0749 40.8585 49.8421 40.809 49.6605 40.908C49.5673 40.9616 47.3554 42.1621 45.5346 40.9245C45.3669 40.809 45.1295 40.8379 44.9991 40.9864C44.8687 41.1349 44.9013 41.3453 45.0689 41.4608C45.8373 41.9847 46.6522 42.1579 47.3973 42.1579C48.8316 42.1621 50.0004 41.5227 50.0702 41.4814Z" fill="#3A643C"/>
<path d="M27.205 40.3127C25.4541 40.1683 25.3144 37.6024 25.3144 37.5776C25.3051 37.3961 25.1374 37.2559 24.9325 37.2559C24.7276 37.2559 24.56 37.4002 24.5507 37.5776C24.5507 37.6024 24.411 40.1683 22.66 40.3127C22.4644 40.3292 22.3154 40.4735 22.3154 40.6468C22.3154 40.8201 22.4644 40.9644 22.66 40.981C24.1129 41.1006 24.5181 43.5716 24.5507 44.5122C24.5553 44.6937 24.7276 44.838 24.9325 44.838C25.1374 44.838 25.3051 44.6937 25.3144 44.5122C25.347 43.5716 25.7521 41.1006 27.205 40.981C27.4006 40.9644 27.5496 40.8201 27.5496 40.6468C27.5496 40.4735 27.4006 40.3292 27.205 40.3127ZM24.9325 42.4372C24.7043 41.7606 24.3365 41.08 23.7544 40.6757C24.3365 40.3415 24.7043 39.7929 24.9325 39.2484C25.1607 39.7929 25.5286 40.3415 26.1107 40.6757C25.5286 41.08 25.1607 41.7606 24.9325 42.4372Z" fill="#3A643C"/>
<path d="M62.3398 29.7482C60.5888 29.6038 60.4491 27.0379 60.4491 27.0132C60.4398 26.8317 60.2722 26.6914 60.0673 26.6914C59.8624 26.6914 59.6947 26.8358 59.6854 27.0132C59.6854 27.0379 59.5457 29.6038 57.7948 29.7482C57.5992 29.7647 57.4502 29.9091 57.4502 30.0824C57.4502 30.2556 57.5992 30.4 57.7948 30.4165C59.2477 30.5361 59.6528 33.0071 59.6854 33.9477C59.6901 34.1292 59.8624 34.2736 60.0673 34.2736C60.2722 34.2736 60.4398 34.1292 60.4491 33.9477C60.4817 33.0071 60.8869 30.5361 62.3398 30.4165C62.5353 30.4 62.6844 30.2556 62.6844 30.0824C62.6844 29.9091 62.5353 29.7647 62.3398 29.7482ZM60.0719 31.8727C59.8438 31.1962 59.4759 30.5155 58.8938 30.1112C59.4759 29.7771 59.8438 29.2284 60.0719 28.6839C60.3001 29.2284 60.668 29.7771 61.2501 30.1112C60.6633 30.5155 60.3001 31.1962 60.0719 31.8727Z" fill="#3A643C"/>
<path d="M29.9438 47.2468C29.1522 47.1808 29.087 45.9886 29.087 45.9762C29.0823 45.8566 28.9706 45.7617 28.8355 45.7617C28.7005 45.7617 28.5887 45.8566 28.584 45.9762C28.584 45.9886 28.5095 47.1808 27.7272 47.2468C27.5968 47.2592 27.499 47.3541 27.499 47.4696C27.499 47.5851 27.5968 47.6841 27.7272 47.6923C28.3791 47.746 28.5654 48.934 28.584 49.3466C28.5887 49.4662 28.7005 49.5652 28.8355 49.5652C28.9706 49.5652 29.087 49.4703 29.087 49.3466C29.1009 48.934 29.2919 47.746 29.9438 47.6923C30.0742 47.68 30.172 47.5851 30.172 47.4696C30.172 47.3541 30.0742 47.2592 29.9438 47.2468ZM28.8355 48.1337C28.7331 47.8862 28.584 47.6552 28.3791 47.4902C28.584 47.3499 28.7331 47.1561 28.8355 46.9539C28.938 47.1561 29.087 47.3499 29.2919 47.4902C29.087 47.6552 28.938 47.8862 28.8355 48.1337Z" fill="#3A643C"/>
</svg>
